<svg preserveAspectRatio="none" width="100%" height="100%" overflow="visible" style="display: block;" viewBox="0 0 14 14" fill="none" xmlns="http://www.w3.org/2000/svg">
<g id="angle-small-down 1">
<path id="Vector" d="M11.7923 4.70618C11.7259 4.64085 11.6469 4.589 11.5599 4.55361C11.4729 4.51822 11.3795 4.5 11.2852 4.5C11.1909 4.5 11.0976 4.51822 11.0106 4.55361C10.9235 4.589 10.8445 4.64085 10.7781 4.70618L7.50708 7.89864C7.44069 7.96397 7.3617 8.01583 7.27467 8.05122C7.18763 8.08661 7.09428 8.10483 7 8.10483C6.90572 8.10483 6.81237 8.08661 6.72533 8.05122C6.6383 8.01583 6.55931 7.96397 6.49291 7.89864L3.22186 4.70618C3.15546 4.64085 3.07647 4.589 2.98944 4.55361C2.9024 4.51822 2.80905 4.5 2.71477 4.5C2.62049 4.5 2.52714 4.51822 2.4401 4.55361C2.35307 4.589 2.27408 4.64085 2.20769 4.70618C2.07466 4.83678 2 5.01345 2 5.1976C2 5.38175 2.07466 5.55841 2.20769 5.68901L5.48589 8.88844C5.88763 9.28004 6.4322 9.5 7 9.5C7.56779 9.5 8.11237 9.28004 8.51411 8.88844L11.7923 5.68901C11.9253 5.55841 12 5.38175 12 5.1976C12 5.01345 11.9253 4.83678 11.7923 4.70618Z" fill="var(--fill-0, #2E3B4C)"/>
</g>
</svg>
