<svg preserveAspectRatio="none" width="100%" height="100%" overflow="visible" style="display: block;" viewBox="0 0 16.0008 16.016" fill="none" xmlns="http://www.w3.org/2000/svg">
<g id="chat 1">
<path id="Vector" d="M16.0008 7.514C15.9043 5.95401 15.3535 4.45634 14.4162 3.20562C13.4789 1.95489 12.1961 1.0058 10.7259 0.475331C9.25571 -0.0551344 7.66242 -0.143777 6.14246 0.220331C4.6225 0.584439 3.24231 1.38538 2.17205 2.52441C1.10179 3.66345 0.388246 5.09078 0.11938 6.63044C-0.149485 8.1701 0.0380834 9.75479 0.658963 11.1891C1.27984 12.6235 2.30689 13.8448 3.61349 14.7025C4.92009 15.5602 6.44912 16.0168 8.01209 16.016H12.6674C13.5512 16.0151 14.3985 15.6636 15.0235 15.0387C15.6484 14.4138 15.9999 13.5665 16.0008 12.6827V7.514ZM14.6674 12.6827C14.6674 13.2131 14.4567 13.7218 14.0816 14.0969C13.7066 14.472 13.1979 14.6827 12.6674 14.6827H8.01209C7.07137 14.6822 6.14131 14.4835 5.28255 14.0995C4.42379 13.7155 3.6556 13.1548 3.02809 12.454C2.39754 11.7535 1.92404 10.9263 1.63935 10.0279C1.35466 9.1294 1.26535 8.18046 1.37742 7.24467C1.55438 5.76863 2.21755 4.39346 3.26238 3.33595C4.30722 2.27844 5.67429 1.59874 7.14809 1.404C7.43558 1.36797 7.72501 1.34971 8.01475 1.34933C9.5684 1.3451 11.074 1.88794 12.2674 2.88267C12.9644 3.46196 13.5366 4.17677 13.9491 4.98375C14.3617 5.79074 14.606 6.67309 14.6674 7.57733V12.6827Z" fill="var(--fill-0, #7C8691)"/>
<path id="Vector_2" d="M5.33409 6.016H8.00075C8.17756 6.016 8.34713 5.94576 8.47216 5.82074C8.59718 5.69571 8.66742 5.52614 8.66742 5.34933C8.66742 5.17252 8.59718 5.00295 8.47216 4.87793C8.34713 4.75291 8.17756 4.68267 8.00075 4.68267H5.33409C5.15728 4.68267 4.98771 4.75291 4.86268 4.87793C4.73766 5.00295 4.66742 5.17252 4.66742 5.34933C4.66742 5.52614 4.73766 5.69571 4.86268 5.82074C4.98771 5.94576 5.15728 6.016 5.33409 6.016Z" fill="var(--fill-0, #7C8691)"/>
<path id="Vector_3" d="M10.6674 7.34933H5.33409C5.15728 7.34933 4.98771 7.41957 4.86268 7.5446C4.73766 7.66962 4.66742 7.83919 4.66742 8.016C4.66742 8.19281 4.73766 8.36238 4.86268 8.48741C4.98771 8.61243 5.15728 8.68267 5.33409 8.68267H10.6674C10.8442 8.68267 11.0138 8.61243 11.1388 8.48741C11.2638 8.36238 11.3341 8.19281 11.3341 8.016C11.3341 7.83919 11.2638 7.66962 11.1388 7.5446C11.0138 7.41957 10.8442 7.34933 10.6674 7.34933Z" fill="var(--fill-0, #7C8691)"/>
<path id="Vector_4" d="M10.6674 10.016H5.33409C5.15728 10.016 4.98771 10.0862 4.86268 10.2113C4.73766 10.3363 4.66742 10.5059 4.66742 10.6827C4.66742 10.8595 4.73766 11.029 4.86268 11.1541C4.98771 11.2791 5.15728 11.3493 5.33409 11.3493H10.6674C10.8442 11.3493 11.0138 11.2791 11.1388 11.1541C11.2638 11.029 11.3341 10.8595 11.3341 10.6827C11.3341 10.5059 11.2638 10.3363 11.1388 10.2113C11.0138 10.0862 10.8442 10.016 10.6674 10.016Z" fill="var(--fill-0, #7C8691)"/>
</g>
</svg>
