<svg preserveAspectRatio="none" width="100%" height="100%" overflow="visible" style="display: block;" viewBox="0 0 16 16" fill="none" xmlns="http://www.w3.org/2000/svg">
<g id="heart 1">
<path id="Vector" d="M11.6652 1C10.9148 1.01162 10.1808 1.22023 9.53722 1.60475C8.89368 1.98927 8.36343 2.53609 8 3.18999C7.63657 2.53609 7.10632 1.98927 6.46278 1.60475C5.81924 1.22023 5.08521 1.01162 4.33481 1C3.13859 1.05176 2.01155 1.57288 1.19993 2.44953C0.38831 3.32617 -0.0419227 4.48707 0.0032261 5.67861C0.0032261 8.69614 3.19261 11.9917 5.86753 14.2262C6.46476 14.726 7.21988 15 8 15C8.78012 15 9.53523 14.726 10.1325 14.2262C12.8074 11.9917 15.9968 8.69614 15.9968 5.67861C16.0419 4.48707 15.6117 3.32617 14.8001 2.44953C13.9884 1.57288 12.8614 1.05176 11.6652 1ZM9.27615 13.2108C8.91895 13.5104 8.46698 13.6746 8 13.6746C7.53302 13.6746 7.08105 13.5104 6.72385 13.2108C3.2999 10.3499 1.33602 7.60513 1.33602 5.67861C1.29047 4.83892 1.58017 4.01537 2.14194 3.38755C2.70371 2.75973 3.49197 2.3786 4.33481 2.32726C5.17765 2.3786 5.96591 2.75973 6.52768 3.38755C7.08946 4.01537 7.37916 4.83892 7.3336 5.67861C7.3336 5.85461 7.40381 6.02341 7.52879 6.14787C7.65376 6.27232 7.82326 6.34224 8 6.34224C8.17674 6.34224 8.34624 6.27232 8.47121 6.14787C8.59619 6.02341 8.6664 5.85461 8.6664 5.67861C8.62084 4.83892 8.91054 4.01537 9.47231 3.38755C10.0341 2.75973 10.8224 2.3786 11.6652 2.32726C12.508 2.3786 13.2963 2.75973 13.8581 3.38755C14.4198 4.01537 14.7095 4.83892 14.664 5.67861C14.664 7.60513 12.7001 10.3499 9.27615 13.2082V13.2108Z" fill="var(--fill-0, #7C8691)"/>
</g>
</svg>
