<svg preserveAspectRatio="none" width="100%" height="100%" overflow="visible" style="display: block;" viewBox="0 0 38 38" fill="none" xmlns="http://www.w3.org/2000/svg">
<g id="Ikona Powiadomienia">
<rect width="38" height="38" rx="19" fill="var(--fill-0, #F4F6F9)"/>
<path id="Vector" d="M12.1178 20.1054L13.3406 15.5486C13.6991 14.2137 14.4781 13.0411 15.5538 12.2173C16.6296 11.3935 17.9403 10.9658 19.2777 11.0021C20.6151 11.0385 21.9024 11.5367 22.935 12.4178C23.9676 13.2988 24.6862 14.512 24.9766 15.8646L25.9233 20.2741C26.0279 20.7613 26.0255 21.2667 25.9162 21.7528C25.807 22.2389 25.5937 22.6935 25.2922 23.0828C24.9907 23.4722 24.6085 23.7864 24.174 24.0023C23.7395 24.2182 23.2638 24.3303 22.7818 24.3303H22.0648C21.9171 25.0837 21.5225 25.7611 20.9477 26.2477C20.3729 26.7342 19.6534 27 18.9111 27C18.1688 27 17.4493 26.7342 16.8746 26.2477C16.2998 25.7611 15.9051 25.0837 15.7574 24.3303H15.2181C14.722 24.3303 14.2326 24.2116 13.7881 23.9833C13.3437 23.755 12.9562 23.4234 12.6559 23.0144C12.3557 22.6053 12.1509 22.1299 12.0574 21.6253C11.9639 21.1207 11.985 20.6005 12.1178 20.1054ZM18.9111 25.6635C19.3091 25.6618 19.6967 25.5328 20.0212 25.2941C20.3456 25.0555 20.5909 24.7189 20.7236 24.3303H17.0987C17.2313 24.7189 17.4767 25.0555 17.8011 25.2941C18.1255 25.5328 18.5132 25.6618 18.9111 25.6635ZM13.6811 22.2072C13.8605 22.4536 14.0928 22.6533 14.3597 22.7904C14.6267 22.9276 14.9208 22.9983 15.2187 22.9971H22.7818C23.071 22.9971 23.3564 22.9298 23.617 22.8002C23.8777 22.6706 24.1069 22.4821 24.2878 22.2485C24.4687 22.0149 24.5966 21.7422 24.6621 21.4505C24.7276 21.1589 24.7291 20.8557 24.6663 20.5634L23.7202 16.1532C23.4922 15.0908 22.9277 14.1379 22.1167 13.4458C21.3056 12.7538 20.2945 12.3624 19.244 12.3339C18.1935 12.3054 17.164 12.6414 16.3191 13.2885C15.4742 13.9356 14.8623 14.8567 14.5809 15.9053L13.358 20.4621C13.2772 20.759 13.2643 21.0713 13.3204 21.3742C13.3765 21.6771 13.5 21.9623 13.6811 22.2072Z" fill="var(--fill-0, #7C8691)"/>
</g>
</svg>
