<svg preserveAspectRatio="none" width="100%" height="100%" overflow="visible" style="display: block;" viewBox="0 0 14.0187 14.0187" fill="none" xmlns="http://www.w3.org/2000/svg">
<g id="search 1">
<path id="Vector" d="M13.8478 13.0229L10.3658 9.54101C11.3147 8.38052 11.7812 6.89973 11.6689 5.40492C11.5566 3.91011 10.874 2.51565 9.76243 1.50998C8.65081 0.504303 7.19518 -0.0356412 5.69663 0.00182735C4.19808 0.0392959 2.77125 0.65131 1.71128 1.71128C0.65131 2.77125 0.0392959 4.19808 0.00182735 5.69663C-0.0356412 7.19518 0.504303 8.65081 1.50998 9.76243C2.51565 10.874 3.91011 11.5566 5.40492 11.6689C6.89973 11.7812 8.38052 11.3147 9.54101 10.3658L13.0229 13.8478C13.1329 13.954 13.2803 14.0128 13.4332 14.0115C13.5862 14.0102 13.7325 13.9488 13.8407 13.8407C13.9488 13.7325 14.0102 13.5862 14.0115 13.4332C14.0128 13.2803 13.954 13.1329 13.8478 13.0229ZM5.85201 10.5187C4.92903 10.5187 4.02677 10.245 3.25934 9.7322C2.49191 9.21942 1.89378 8.49058 1.54057 7.63786C1.18736 6.78514 1.09494 5.84683 1.27501 4.94158C1.45507 4.03634 1.89953 3.20482 2.55217 2.55217C3.20482 1.89953 4.03634 1.45507 4.94158 1.27501C5.84683 1.09494 6.78514 1.18736 7.63786 1.54057C8.49058 1.89378 9.21942 2.49191 9.7322 3.25934C10.245 4.02677 10.5187 4.92903 10.5187 5.85201C10.5173 7.08926 10.0252 8.27543 9.1503 9.1503C8.27543 10.0252 7.08926 10.5173 5.85201 10.5187Z" fill="var(--fill-0, #2E3B4C)"/>
</g>
</svg>
