<svg preserveAspectRatio="none" width="100%" height="100%" overflow="visible" style="display: block;" viewBox="0 0 14.6202 14.6202" fill="none" xmlns="http://www.w3.org/2000/svg">
<g id="search 1">
<path id="Vector" d="M13.8364 13.3223L10.3573 9.84323C11.3054 8.6837 11.7716 7.20412 11.6593 5.71054C11.5471 4.21695 10.8651 2.82364 9.75441 1.81879C8.64371 0.813947 7.18928 0.274447 5.69195 0.311884C4.19463 0.349322 2.76897 0.960834 1.70987 2.01993C0.650775 3.07903 0.0392636 4.50469 0.00182585 6.00201C-0.0356119 7.49933 0.503889 8.95377 1.50874 10.0645C2.51358 11.1752 3.9069 11.8572 5.40048 11.9694C6.89406 12.0816 8.37364 11.6155 9.53317 10.6674L13.0122 14.1464C13.1222 14.2526 13.2694 14.3114 13.4222 14.31C13.575 14.3087 13.7212 14.2474 13.8293 14.1393C13.9374 14.0313 13.9987 13.8851 14 13.7323C14.0013 13.5794 13.9426 13.4322 13.8364 13.3223ZM5.8472 10.8201C4.92498 10.8201 4.02347 10.5466 3.25667 10.0343C2.48987 9.52191 1.89222 8.79367 1.5393 7.94165C1.18638 7.08963 1.09404 6.15209 1.27396 5.24758C1.45388 4.34308 1.89797 3.51225 2.55008 2.86014C3.20219 2.20803 4.03302 1.76394 4.93753 1.58402C5.84203 1.4041 6.77957 1.49644 7.63159 1.84936C8.48361 2.20228 9.21185 2.79993 9.72421 3.56673C10.2366 4.33353 10.51 5.23504 10.51 6.15726C10.5086 7.39349 10.0169 8.5787 9.14279 9.45285C8.26864 10.327 7.08343 10.8187 5.8472 10.8201Z" fill="var(--fill-0, #2E3B4C)"/>
</g>
</svg>
