<svg preserveAspectRatio="none" width="100%" height="100%" overflow="visible" style="display: block;" viewBox="0 0 14 14" fill="none" xmlns="http://www.w3.org/2000/svg">
<g id="01 align center">
<path id="Vector" d="M2.62497 11.375V12.8333H1.74998C1.59527 12.8333 1.4469 12.7719 1.3375 12.6625C1.22811 12.5531 1.16665 12.4047 1.16665 12.25V11.375H2.62497ZM3.79162 10.2083H0V12.25C0 12.7141 0.184372 13.1592 0.512557 13.4874C0.840741 13.8156 1.28586 14 1.74998 14H3.79162V10.2083Z" fill="var(--fill-0, #2E3B4C)"/>
<path id="Vector_2" d="M12.8334 11.375V12.25C12.8334 12.4047 12.7719 12.5531 12.6625 12.6625C12.5531 12.7719 12.4048 12.8333 12.25 12.8333H11.3751V11.375H12.8334ZM14 10.2083H10.2084V14H12.25C12.7142 14 13.1593 13.8156 13.4875 13.4874C13.8157 13.1592 14 12.7141 14 12.25V10.2083Z" fill="var(--fill-0, #2E3B4C)"/>
<path id="Vector_3" d="M2.62497 6.27081V7.72915H1.16665V6.27081H2.62497ZM3.79162 5.10415H0V8.89581H3.79162V5.10415Z" fill="var(--fill-0, #2E3B4C)"/>
<path id="Vector_4" d="M12.8334 6.27081V7.72915H11.3751V6.27081H12.8334ZM14 5.10415H10.2084V8.89581H14V5.10415Z" fill="var(--fill-0, #2E3B4C)"/>
<path id="Vector_5" d="M2.62497 1.16666V2.625H1.16665V1.75C1.16665 1.59529 1.22811 1.44692 1.3375 1.33752C1.4469 1.22812 1.59527 1.16666 1.74998 1.16666H2.62497ZM3.79162 0H1.74998C1.28586 0 0.840741 0.184374 0.512557 0.512562C0.184372 0.840751 0 1.28587 0 1.75L0 3.79166H3.79162V0Z" fill="var(--fill-0, #2E3B4C)"/>
<path id="Vector_6" d="M7.72906 11.375V12.8333H6.27075V11.375H7.72906ZM8.89572 10.2083H5.1041V14H8.89572V10.2083Z" fill="var(--fill-0, #2E3B4C)"/>
<path id="Vector_7" d="M7.72906 6.27081V7.72915H6.27075V6.27081H7.72906ZM8.89572 5.10415H5.1041V8.89581H8.89572V5.10415Z" fill="var(--fill-0, #2E3B4C)"/>
<path id="Vector_8" d="M7.72906 1.16666V2.625H6.27075V1.16666H7.72906ZM8.89572 0H5.1041V3.79166H8.89572V0Z" fill="var(--fill-0, #2E3B4C)"/>
<path id="Vector_9" d="M12.2498 1.16666C12.4045 1.16666 12.5529 1.22812 12.6623 1.33752C12.7717 1.44692 12.8332 1.59529 12.8332 1.75V2.625H11.3748V1.16666H12.2498ZM12.2498 0H10.2082V3.79166H13.9998V1.75C13.9998 1.28587 13.8154 0.840751 13.4873 0.512562C13.1591 0.184374 12.714 0 12.2498 0Z" fill="var(--fill-0, #2E3B4C)"/>
</g>
</svg>
